<svg width="880" height="308" viewBox="0 0 880 308" fill="none" xmlns="http://www.w3.org/2000/svg">
<mask id="mask0_1767_3624" style="mask-type:luminance" maskUnits="userSpaceOnUse" x="0" y="0" width="880" height="308">
<path d="M880 0H0V308H880V0Z" fill="white"/>
</mask>
<g mask="url(#mask0_1767_3624)">
<path d="M110.118 3.2832L212.055 230.825H184.451L146.826 147.387C146.826 157.903 145.149 168.169 141.805 178.179C138.472 188.195 133.565 197.148 127.097 205.033C120.623 212.924 112.638 219.195 103.138 223.846C93.6384 228.502 82.7113 230.825 70.3675 230.825C57.0186 230.825 45.5863 227.945 36.0759 222.179C26.5759 216.419 19.4977 208.528 14.8467 198.512C10.1904 188.502 8.57586 177.127 9.99252 164.387C11.0029 155.085 13.3779 146.033 17.1175 137.242C20.8675 128.439 25.2686 119.887 30.3259 111.596C35.3779 103.304 40.4352 95.4186 45.4925 87.929C51.7529 78.627 57.3675 69.7311 62.3259 61.2415C67.2842 52.7415 71.4769 43.7936 74.9092 34.3874C78.3519 24.9707 80.7842 14.6061 82.2009 3.2832H110.118ZM139.847 131.908L85.8467 11.4707C83.6227 24.0124 80.0342 35.8978 75.0759 47.1165C70.1175 58.3405 64.3988 69.6165 57.93 80.9499C53.4821 89.0332 48.8311 97.679 43.9717 106.887C39.1227 116.096 35.18 125.507 32.1384 135.117C29.1071 144.715 28.1019 154.367 29.1175 164.075C30.1175 173.992 33.2946 182.742 38.6592 190.325C44.0186 197.908 51.1488 203.424 60.055 206.867C68.9561 210.299 79.2686 211.002 90.9925 208.971C98.4769 207.762 105.81 204.429 112.993 198.971C120.17 193.512 126.336 186.945 131.493 179.262C136.659 171.57 140.149 163.575 141.972 155.283C143.789 146.992 143.081 139.2 139.847 131.908Z" fill="#FDF0ED"/>
<path d="M236.896 230.825V3.2832H262.084V230.825H236.896Z" fill="#FDF0ED"/>
<path d="M296.959 3.2832H322.146V230.825C322.146 240.127 321.131 248.773 319.105 256.762C317.074 264.747 312.98 271.163 306.813 276.012C300.646 280.872 291.199 283.408 278.459 283.617C269.751 283.617 262.016 281.689 255.251 277.846C248.475 274.012 242.855 268.752 238.396 262.075L242.042 259.346C245.282 264.189 249.532 267.981 254.792 270.721C260.042 273.455 265.501 274.622 271.167 274.221C279.058 273.606 284.824 271.023 288.459 266.471C292.1 261.913 294.428 256.351 295.438 249.783C296.454 243.21 296.959 236.893 296.959 230.825V3.2832Z" fill="#FDF0ED"/>
<path d="M466.842 3.2832C482.019 3.2832 496.285 6.2155 509.633 12.0749C522.977 17.9395 534.706 26.0749 544.821 36.4915C554.93 46.9082 562.821 59.002 568.488 72.7624C574.154 86.5124 576.988 101.278 576.988 117.054C576.988 132.835 574.154 147.596 568.488 161.346C562.821 175.096 554.93 187.179 544.821 197.596C534.706 208.012 522.977 216.158 509.633 222.033C496.285 227.898 482.019 230.825 466.842 230.825C451.675 230.825 437.415 227.898 424.071 222.033C410.722 216.158 399.04 208.012 389.029 197.596C379.014 187.179 371.123 175.096 365.363 161.346C359.597 147.596 356.717 132.835 356.717 117.054C356.717 101.278 359.597 86.5124 365.363 72.7624C371.123 59.002 379.014 46.9082 389.029 36.4915C399.04 26.0749 410.722 17.9395 424.071 12.0749C437.415 6.2155 451.675 3.2832 466.842 3.2832ZM466.842 8.13737C455.118 8.13737 444.144 10.9707 433.925 16.6374C423.717 22.2936 414.717 30.127 406.925 40.1374C399.144 50.153 393.029 61.7363 388.571 74.8874C384.123 88.028 381.904 102.085 381.904 117.054C381.904 132.221 384.123 146.382 388.571 159.533C393.029 172.674 399.144 184.252 406.925 194.262C414.717 204.278 423.717 212.117 433.925 217.783C444.144 223.45 455.118 226.283 466.842 226.283C478.576 226.283 489.597 223.45 499.904 217.783C510.222 212.117 519.279 204.278 527.071 194.262C534.863 184.252 540.93 172.674 545.279 159.533C549.623 146.382 551.8 132.221 551.8 117.054C551.8 102.085 549.623 88.028 545.279 74.8874C540.93 61.7363 534.863 50.153 527.071 40.1374C519.279 30.127 510.222 22.2936 499.904 16.6374C489.597 10.9707 478.576 8.13737 466.842 8.13737Z" fill="#FDF0ED"/>
<path d="M631.557 100.971C636.208 95.304 641.973 91.3145 648.848 88.9915C655.723 86.6582 662.702 85.6947 669.786 86.0957C677.463 86.5124 684.942 88.1895 692.223 91.1165C699.515 94.0488 706.796 96.9811 714.077 99.9082C721.354 102.84 728.838 104.71 736.536 105.512C742.187 105.929 747.187 104.877 751.536 102.346C755.895 99.8197 758.077 95.5228 758.077 89.4499V3.2832H783.244V230.825H758.077V104.012C755.437 111.486 750.979 116.992 744.702 120.533C738.437 124.075 731.666 125.95 724.39 126.158C716.9 126.356 709.921 125.137 703.452 122.512C696.979 119.887 690.807 116.804 684.932 113.262C679.067 109.721 673.255 106.59 667.494 103.867C661.729 101.132 655.713 99.7624 649.452 99.7624C645.604 99.7624 641.661 100.674 637.619 102.492C633.577 104.314 631.557 107.549 631.557 112.2V230.825H606.369V3.2832H631.557V100.971Z" fill="#FDF0ED"/>
<path d="M818.406 230.825V3.2832H843.594V230.825H818.406Z" fill="#FDF0ED"/>
</g>
</svg>
